<svg width="290" height="72" viewBox="0 0 290 72" fill="none" xmlns="http://www.w3.org/2000/svg">
<path d="M23.2609 51.7312C22.8543 49.7738 22.749 47.7658 22.9487 45.7766C23.1821 43.4427 23.7948 41.2429 25.3819 39.4982C26.5234 38.2169 27.8099 37.0724 29.2154 36.0877C32.6259 33.7537 36.1415 31.5802 39.6279 29.3775C39.7458 29.3328 39.8721 29.314 39.998 29.3225C40.1239 29.3311 40.2464 29.3668 40.3572 29.4271C41.4659 30.1127 42.5483 30.8509 43.6394 31.5627C46.4547 33.4066 49.3168 35.195 52.0767 37.1234C53.2854 37.9647 54.3181 39.034 55.1167 40.2714C57.0048 39.9668 58.9137 39.8088 60.8262 39.7987C62.9716 39.7979 65.1112 40.0228 67.2096 40.4698C66.5452 37.9447 65.4239 35.5627 63.9012 33.4416C61.4943 30.1128 58.2851 27.7146 54.857 25.544C52.1963 23.8577 49.4947 22.2268 46.8894 20.453C44.2841 18.6792 42.0785 16.4473 40.7628 13.4832C40.6023 13.1127 40.471 12.7334 40.3135 12.3016C42.064 11.9749 43.4702 11.3009 44.5059 9.94722C45.5066 8.63728 46.0346 6.65923 45.6379 5.49225C44.6634 8.82983 42.735 10.3061 40.153 9.69048C37.8628 9.14783 36.3224 6.91597 36.7016 4.71328C36.7968 4.0429 37.0442 3.40323 37.4251 2.84338C37.8059 2.28352 38.3099 1.81838 38.8985 1.48365C40.1472 0.748444 41.4746 0.733857 42.8371 1.1423C40.8153 -0.053859 38.7526 -0.129713 36.7308 1.04311C34.5194 2.32388 33.4808 4.37777 33.7988 6.89847C34.2101 10.1514 36.3049 11.8582 39.5433 12.3191C39.4674 12.57 39.412 12.7742 39.3332 12.9726C38.5191 14.9978 37.2621 16.8151 35.6543 18.2912C33.7959 20.0417 31.6749 21.4508 29.5072 22.7899C26.1404 24.8701 22.6861 26.816 19.6841 29.4388C16.5332 32.1871 14.1963 35.4838 12.9739 39.5128C11.5329 44.2064 11.325 49.192 12.37 53.9893C12.9272 53.9893 13.4844 53.9601 14.065 53.9047C17.2043 53.5452 20.2901 52.8157 23.258 51.7312" fill="white"/>
<path d="M73.6047 43.9925C71.6736 43.0214 69.6348 42.2811 67.5305 41.7869C65.3309 41.2727 63.0792 41.0152 60.8203 41.0196C53.3604 41.0313 45.2819 43.9487 38.4521 46.8195C33.4924 48.8967 28.6115 51.1957 23.5526 52.9462C16.4369 55.4085 8.98569 56.7593 2.0888 52.8382L0.644652 52.0009C0.618395 52.0418 4.86915 56.7301 7.28481 58.4194C15.3604 64.1026 25.3031 63.6708 34.2568 60.5462C39.8 58.6294 45.0514 56.0329 50.3525 53.5968C55.0583 51.4379 59.7905 49.349 64.8173 48.0361C67.6007 47.2719 70.4705 46.867 73.3567 46.8312C74.6625 46.8276 75.9666 46.9251 77.2574 47.1229L78.7569 47.3563C78.8007 47.2921 75.3231 44.8327 73.6047 43.9721" fill="white"/>
<path d="M64.8525 51.0147C60.666 52.1817 56.6836 53.8768 52.745 55.6535C48.1675 57.7162 43.625 59.8605 39.0008 61.8035C33.6123 64.0558 28.0691 65.71 22.167 65.8296C22.0135 65.8511 21.8621 65.8862 21.7148 65.9347V66.1389C29.7787 71.7959 38.569 73.3859 47.9516 70.1125C57.1854 66.9033 63.0116 60.2748 65.8853 51.0147C65.827 50.9447 65.7744 50.8776 65.7219 50.8047C65.4302 50.8776 65.1384 50.9418 64.8467 51.0177" fill="white"/>
<path d="M98.2968 28.1557C96.6922 30.2359 95.8695 33.6172 95.8695 38.3464C95.8695 46.3228 99.1225 51.265 104.803 51.265C108.304 51.265 111.35 49.4007 112.779 46.7983C113.173 46.1477 113.386 46.0194 113.733 46.0194C113.817 46.0184 113.9 46.0347 113.977 46.0674C114.054 46.1001 114.123 46.1484 114.18 46.2093C114.238 46.2702 114.282 46.3423 114.31 46.4211C114.338 46.4999 114.349 46.5837 114.343 46.6671C114.255 47.2768 113.733 48.0995 112.738 49.1382C110.786 51.3934 107.752 53.0417 103.589 53.0417C94.6121 53.0417 89.1914 46.7983 89.1914 38.3464C89.1914 29.629 95.0905 23.6016 103.677 23.6016C110.136 23.6016 114.384 26.9829 114.384 30.8952C114.384 33.2817 113.042 34.4954 111.466 34.4954C110.078 34.4954 108.908 33.5414 108.908 32.0214C108.908 31.1986 109.199 30.8077 109.946 29.9412C110.512 29.2906 110.772 28.9434 110.772 28.4212C110.772 26.6912 108.126 25.0428 104.572 25.0428C103.35 25.0199 102.141 25.2916 101.046 25.8349C99.9509 26.3783 99.003 27.1774 98.2822 28.1645" fill="white"/>
<path d="M144.998 52.605H132.724C132.558 52.6105 132.397 52.5501 132.275 52.4369C132.154 52.3237 132.082 52.167 132.076 52.0011C132.071 51.8235 132.137 51.6512 132.258 51.5213C132.379 51.3914 132.546 51.3144 132.724 51.3068H134.285C134.979 51.3068 135.452 50.9187 135.452 50.3527C135.446 50.1582 135.401 49.9667 135.32 49.7897L132.849 43.8935H122.624L120.29 49.7897C120.211 49.9364 120.166 50.0989 120.158 50.2652C120.158 50.9187 120.637 51.3068 121.325 51.3068H122.886C123.064 51.3144 123.232 51.3913 123.353 51.5211C123.475 51.6509 123.541 51.8233 123.537 52.0011C123.53 52.1673 123.458 52.324 123.336 52.4371C123.214 52.5502 123.052 52.6106 122.886 52.605H115.686C115.52 52.6106 115.358 52.5502 115.236 52.4371C115.114 52.324 115.042 52.1673 115.035 52.0011C115.031 51.8233 115.097 51.6509 115.219 51.5211C115.341 51.3913 115.508 51.3144 115.686 51.3068H116.725C117.766 51.3068 118.329 50.8283 118.72 49.7897L129.258 23.8242H131.035L141.917 49.8422C142.352 50.837 143.046 51.3155 144.044 51.3155H144.998C145.173 51.3245 145.338 51.4009 145.458 51.5287C145.578 51.6565 145.644 51.8257 145.642 52.0011C145.636 52.1673 145.563 52.324 145.442 52.4371C145.32 52.5502 145.158 52.6106 144.992 52.605H144.998ZM132.33 42.6856L127.648 31.4563L123.137 42.6856H132.33Z" fill="white"/>
<path d="M157.876 52.6078H147.469C147.382 52.6134 147.296 52.6004 147.214 52.5699C147.133 52.5393 147.059 52.4918 146.998 52.4306C146.936 52.3694 146.888 52.2958 146.858 52.2147C146.827 52.1336 146.813 52.0468 146.818 51.9602C146.817 51.8743 146.833 51.789 146.865 51.7093C146.897 51.6297 146.945 51.5573 147.005 51.4966C147.066 51.4359 147.139 51.388 147.218 51.3559C147.298 51.3237 147.383 51.308 147.469 51.3096H148.248C149.074 51.3096 149.634 50.7903 149.634 50.0959V26.5519C149.634 25.8576 149.074 25.3353 148.248 25.3353H147.469C147.383 25.3385 147.298 25.3243 147.218 25.2935C147.138 25.2628 147.065 25.2162 147.003 25.1565C146.941 25.0968 146.893 25.0253 146.859 24.9462C146.826 24.8672 146.809 24.7822 146.81 24.6964C146.805 24.6098 146.818 24.523 146.849 24.4419C146.88 24.3608 146.928 24.2872 146.989 24.226C147.051 24.1647 147.124 24.1173 147.206 24.0867C147.287 24.0562 147.374 24.0432 147.46 24.0487H157.867C157.954 24.0419 158.042 24.0539 158.124 24.0839C158.207 24.1138 158.282 24.1611 158.344 24.2225C158.406 24.2839 158.455 24.3579 158.487 24.4397C158.518 24.5214 158.531 24.609 158.526 24.6964C158.528 24.7824 158.513 24.8679 158.481 24.9477C158.449 25.0276 158.401 25.1001 158.34 25.1609C158.279 25.2217 158.207 25.2696 158.127 25.3016C158.047 25.3335 157.962 25.349 157.876 25.347H157.094C156.359 25.347 155.705 25.9101 155.705 26.5636L155.752 50.1076C155.774 50.4444 155.927 50.7594 156.177 50.9859C156.428 51.2123 156.756 51.3326 157.094 51.3212H157.876C158.053 51.3172 158.226 51.3831 158.356 51.5048C158.485 51.6264 158.562 51.7941 158.57 51.9718C158.57 52.061 158.552 52.1492 158.517 52.231C158.481 52.3127 158.429 52.3863 158.364 52.4471C158.299 52.5079 158.222 52.5546 158.138 52.5843C158.054 52.6139 157.965 52.6259 157.876 52.6195" fill="white"/>
<path d="M184.282 52.6059H161.648V50.9517L176.953 25.3276H169.149C165.648 25.3276 163.606 27.7578 163.606 31.2238V31.6964C163.606 31.869 163.538 32.0345 163.416 32.1565C163.294 32.2785 163.128 32.347 162.955 32.347C162.783 32.347 162.617 32.2785 162.495 32.1565C162.373 32.0345 162.305 31.869 162.305 31.6964V24.0352H184.113V25.3334L168.548 51.2989H177.697C181.123 51.2989 183.031 48.784 183.031 45.6186V44.9242C183.025 44.8375 183.039 44.7506 183.07 44.6693C183.101 44.5881 183.148 44.5143 183.21 44.4529C183.271 44.3914 183.345 44.3437 183.426 44.3128C183.508 44.2819 183.594 44.2685 183.681 44.2736C183.765 44.2734 183.847 44.2904 183.924 44.3236C184.001 44.3568 184.07 44.4055 184.127 44.4665C184.183 44.5276 184.227 44.5998 184.255 44.6785C184.283 44.7573 184.294 44.8409 184.288 44.9242L184.282 52.6059Z" fill="white"/>
<path d="M197.246 28.1557C195.639 30.2359 194.816 33.6172 194.816 38.3464C194.816 46.3228 198.069 51.265 203.749 51.265C207.25 51.265 210.299 49.4007 211.731 46.7983C212.119 46.1477 212.335 46.0194 212.685 46.0194C212.768 46.0191 212.85 46.0361 212.927 46.0692C213.003 46.1022 213.071 46.1507 213.128 46.2116C213.184 46.2724 213.227 46.3443 213.255 46.4227C213.282 46.5011 213.293 46.5843 213.286 46.6671C213.202 47.2768 212.685 48.0995 211.688 49.1382C209.733 51.3934 206.699 53.0417 202.535 53.0417C193.558 53.0417 188.141 46.7983 188.141 38.3464C188.141 29.629 194.04 23.6016 202.623 23.6016C209.085 23.6016 213.333 26.9829 213.333 30.8952C213.333 33.2817 211.988 34.4954 210.43 34.4954C209.041 34.4954 207.869 33.5414 207.869 32.0214C207.869 31.1986 208.16 30.8077 208.91 29.9412C209.473 29.2906 209.733 28.9434 209.733 28.4212C209.733 26.6912 207.087 25.0428 203.533 25.0428C202.311 25.0194 201.102 25.2909 200.008 25.8343C198.913 26.3777 197.966 27.177 197.246 28.1645" fill="white"/>
<path d="M231.806 53.0404C223.054 53.1717 217.105 46.5811 217.192 38.2985C217.119 30.0158 223.045 23.5273 231.806 23.644C240.558 23.469 246.501 30.1062 246.417 38.2985C246.501 46.5811 240.561 53.1775 231.806 53.0404ZM237.877 28.63C236.666 26.153 234.624 24.9452 231.806 24.9452C228.988 24.9452 226.948 26.1589 225.679 28.63C224.41 31.1011 223.859 34.2694 223.859 38.2985C223.859 42.3275 224.463 45.5921 225.72 48.0545C226.978 50.5168 228.973 51.7421 231.794 51.7421C234.615 51.7421 236.608 50.5285 237.866 48.0545C239.123 45.5805 239.724 42.3304 239.724 38.2985C239.724 34.2665 239.123 31.0573 237.866 28.63" fill="white"/>
<path d="M260.164 52.6072H249.757C249.67 52.6122 249.584 52.599 249.503 52.5683C249.422 52.5375 249.348 52.49 249.287 52.4289C249.225 52.3678 249.178 52.2944 249.146 52.2135C249.115 52.1326 249.102 52.046 249.106 51.9595C249.105 51.8737 249.121 51.7886 249.153 51.7092C249.186 51.6297 249.234 51.5575 249.294 51.4968C249.355 51.4362 249.427 51.3883 249.507 51.356C249.586 51.3238 249.671 51.3077 249.757 51.3089H250.539C251.362 51.3089 251.928 50.7896 251.928 50.0952V26.5513C251.928 25.8569 251.362 25.3347 250.539 25.3347H249.757C249.672 25.3363 249.588 25.3209 249.509 25.2895C249.43 25.258 249.358 25.2112 249.298 25.1517C249.237 25.0923 249.189 25.0213 249.156 24.943C249.123 24.8647 249.106 24.7807 249.106 24.6958C249.102 24.6092 249.115 24.5227 249.146 24.4418C249.178 24.3609 249.225 24.2875 249.287 24.2264C249.348 24.1652 249.422 24.1178 249.503 24.087C249.584 24.0563 249.67 24.043 249.757 24.0481H260.164C260.25 24.0426 260.337 24.0556 260.419 24.0861C260.5 24.1166 260.574 24.164 260.636 24.2252C260.697 24.2864 260.746 24.36 260.777 24.4411C260.808 24.5222 260.822 24.609 260.817 24.6958C260.819 24.7819 260.803 24.8675 260.771 24.9473C260.738 25.0272 260.69 25.0996 260.629 25.1604C260.568 25.2212 260.495 25.269 260.415 25.3009C260.335 25.3329 260.25 25.3484 260.164 25.3464H259.385C258.646 25.3464 257.996 25.9094 257.996 26.563L258.04 50.1069C258.062 50.4443 258.215 50.7597 258.466 50.9863C258.717 51.2128 259.047 51.3327 259.385 51.3206H260.164C260.342 51.3166 260.514 51.3824 260.645 51.504C260.775 51.6255 260.852 51.7932 260.861 51.9712C260.861 52.0604 260.842 52.1487 260.806 52.2305C260.771 52.3123 260.718 52.3859 260.653 52.4466C260.588 52.5074 260.51 52.554 260.426 52.5836C260.342 52.6133 260.253 52.6253 260.164 52.6189" fill="white"/>
<path d="M288.824 25.3352H288.045C287.865 25.3321 287.686 25.3646 287.519 25.4308C287.352 25.497 287.2 25.5955 287.071 25.7208C286.942 25.8461 286.84 25.9956 286.769 26.1608C286.698 26.3259 286.661 26.5034 286.659 26.6831V52.6077H283.709L267.231 30.3212V49.9674C267.234 50.1468 267.272 50.324 267.343 50.4886C267.415 50.6533 267.518 50.8023 267.647 50.927C267.776 51.0517 267.928 51.1497 268.095 51.2153C268.262 51.2809 268.441 51.3129 268.62 51.3095H269.399C269.488 51.3092 269.576 51.3274 269.658 51.3628C269.74 51.3982 269.814 51.4502 269.874 51.5153C269.935 51.5805 269.982 51.6575 270.011 51.7416C270.041 51.8256 270.053 51.9149 270.047 52.0038C270.047 52.0871 270.031 52.1695 269.998 52.246C269.965 52.3225 269.916 52.3913 269.856 52.4481C269.795 52.5049 269.723 52.5484 269.644 52.5759C269.565 52.6033 269.482 52.6142 269.399 52.6077H263.547C263.463 52.6142 263.38 52.6033 263.301 52.5759C263.222 52.5484 263.15 52.505 263.089 52.4482C263.028 52.3915 262.979 52.3227 262.946 52.2462C262.913 52.1697 262.896 52.0872 262.896 52.0038C262.89 51.9148 262.902 51.8254 262.932 51.7414C262.962 51.6573 263.009 51.5803 263.07 51.5152C263.131 51.4501 263.205 51.3982 263.287 51.3628C263.369 51.3274 263.457 51.3092 263.547 51.3095H264.326C264.506 51.3165 264.686 51.287 264.854 51.2227C265.023 51.1584 265.177 51.0605 265.307 50.9351C265.436 50.8097 265.539 50.6593 265.609 50.493C265.68 50.3267 265.715 50.1479 265.714 49.9674V26.6831C265.716 26.5021 265.681 26.3227 265.611 26.1557C265.542 25.9887 265.439 25.8376 265.309 25.7116C265.179 25.5855 265.025 25.4872 264.856 25.4225C264.687 25.3578 264.506 25.3281 264.326 25.3352H263.547C263.457 25.3354 263.369 25.3173 263.287 25.2819C263.205 25.2465 263.131 25.1946 263.07 25.1295C263.009 25.0644 262.962 24.9874 262.932 24.9033C262.902 24.8193 262.89 24.7299 262.896 24.6409C262.896 24.5575 262.913 24.4749 262.946 24.3985C262.979 24.322 263.028 24.2532 263.089 24.1965C263.15 24.1397 263.222 24.0963 263.301 24.0688C263.38 24.0414 263.463 24.0305 263.547 24.037H269.702L285.139 44.8939V26.6831C285.14 26.5021 285.105 26.3227 285.036 26.1557C284.966 25.9887 284.863 25.8376 284.733 25.7116C284.603 25.5855 284.449 25.4872 284.28 25.4225C284.111 25.3578 283.931 25.3281 283.75 25.3352H282.971C282.882 25.3359 282.793 25.318 282.711 25.2828C282.629 25.2475 282.555 25.1956 282.494 25.1304C282.433 25.0652 282.386 24.988 282.356 24.9038C282.326 24.8195 282.314 24.73 282.32 24.6409C282.32 24.5575 282.337 24.4749 282.37 24.3985C282.404 24.322 282.452 24.2532 282.514 24.1965C282.575 24.1397 282.647 24.0963 282.726 24.0688C282.804 24.0414 282.888 24.0305 282.971 24.037H288.824C288.907 24.0305 288.99 24.0414 289.069 24.0688C289.148 24.0963 289.22 24.1397 289.281 24.1965C289.342 24.2532 289.391 24.322 289.424 24.3985C289.457 24.4749 289.474 24.5575 289.474 24.6409C289.481 24.73 289.468 24.8195 289.439 24.9038C289.409 24.988 289.362 25.0652 289.301 25.1304C289.24 25.1956 289.166 25.2475 289.084 25.2828C289.001 25.318 288.913 25.3359 288.824 25.3352Z" fill="white"/>
</svg>
